<svg viewBox="0 0 120 132" xmlns="http://www.w3.org/2000/svg">
  <defs>
    <clipPath id="h">
      <path d="M60 112 C 22 84, 8 58, 26 38 C 39 24, 56 28, 60 44 C 64 28, 81 24, 94 38 C 112 58, 98 84, 60 112 Z" />
    </clipPath>
  </defs>
  <g clip-path="url(#h)">
    <rect x="0" y="0" width="60" height="132" fill="#13a89e" />
    <rect x="60" y="0" width="60" height="132" fill="#e8743b" />
  </g>
  <g fill="#fff">
    <ellipse cx="28" cy="52" rx="6.5" ry="11" transform="rotate(-28 28 52)" />
    <circle cx="41" cy="64" r="14" />
    <ellipse cx="53" cy="68" rx="8" ry="6" />
  </g>
  <g fill="#fff">
    <path d="M70 54 L72.5 41 L81 51 Z" />
    <path d="M90 54 L87.5 41 L79 51 Z" />
    <circle cx="80" cy="64" r="14" />
  </g>
  <path d="M56 12 H64 V20 H72 V28 H64 V36 H56 V28 H48 V20 H56 Z" fill="#13a89e" stroke="#fff" stroke-width="2.5" stroke-linejoin="round" />
</svg>
